<mxfile host="app.diagrams.net" agent="Mozilla/5.0 (Windows NT 10.0; Win64; x64) AppleWebKit/537.36 (KHTML, like Gecko) Chrome/136.0.0.0 Safari/537.36" version="26.2.14">
  <diagram name="Page-1" id="0qJE7MdJ5lrChNvPqHe_">
    <mxGraphModel dx="1042" dy="614" grid="1" gridSize="10" guides="1" tooltips="1" connect="1" arrows="1" fold="1" page="1" pageScale="1" pageWidth="850" pageHeight="1100" math="0" shadow="0">
      <root>
        <mxCell id="0" />
        <mxCell id="1" parent="0" />
        <mxCell id="MwsztaiUmeLu_uvfN375-1" value="" style="whiteSpace=wrap;html=1;aspect=fixed;fillColor=#ffe6cc;strokeColor=#d79b00;" vertex="1" parent="1">
          <mxGeometry x="170" y="20" width="560" height="560" as="geometry" />
        </mxCell>
        <mxCell id="MwsztaiUmeLu_uvfN375-3" value="Pengguna" style="shape=umlActor;verticalLabelPosition=bottom;verticalAlign=top;html=1;outlineConnect=0;" vertex="1" parent="1">
          <mxGeometry x="50" y="280" width="40" height="90" as="geometry" />
        </mxCell>
        <mxCell id="MwsztaiUmeLu_uvfN375-4" value="Admin" style="shape=umlActor;verticalLabelPosition=bottom;verticalAlign=top;html=1;outlineConnect=0;" vertex="1" parent="1">
          <mxGeometry x="770" y="280" width="40" height="90" as="geometry" />
        </mxCell>
        <mxCell id="MwsztaiUmeLu_uvfN375-5" value="Memasukkan kartu" style="ellipse;whiteSpace=wrap;html=1;" vertex="1" parent="1">
          <mxGeometry x="200" y="110" width="100" height="50" as="geometry" />
        </mxCell>
        <mxCell id="MwsztaiUmeLu_uvfN375-7" value="Melihat Saldo" style="ellipse;whiteSpace=wrap;html=1;" vertex="1" parent="1">
          <mxGeometry x="310" y="190" width="100" height="50" as="geometry" />
        </mxCell>
        <mxCell id="MwsztaiUmeLu_uvfN375-9" value="Memilih Transaksi" style="ellipse;whiteSpace=wrap;html=1;" vertex="1" parent="1">
          <mxGeometry x="180" y="280" width="100" height="50" as="geometry" />
        </mxCell>
        <mxCell id="MwsztaiUmeLu_uvfN375-10" value="mengirim Uang" style="ellipse;whiteSpace=wrap;html=1;" vertex="1" parent="1">
          <mxGeometry x="490" y="250" width="100" height="50" as="geometry" />
        </mxCell>
        <mxCell id="MwsztaiUmeLu_uvfN375-11" value="Memasukkan Pin" style="ellipse;whiteSpace=wrap;html=1;" vertex="1" parent="1">
          <mxGeometry x="580" y="100" width="100" height="50" as="geometry" />
        </mxCell>
        <mxCell id="MwsztaiUmeLu_uvfN375-47" value="Mengambil Uang" style="ellipse;whiteSpace=wrap;html=1;" vertex="1" parent="1">
          <mxGeometry x="440" y="310" width="100" height="50" as="geometry" />
        </mxCell>
        <mxCell id="MwsztaiUmeLu_uvfN375-49" value="Melakukan Setor Tunai" style="ellipse;whiteSpace=wrap;html=1;" vertex="1" parent="1">
          <mxGeometry x="380" y="430" width="100" height="50" as="geometry" />
        </mxCell>
        <mxCell id="MwsztaiUmeLu_uvfN375-50" value="Mengganti kotak Deposit" style="ellipse;whiteSpace=wrap;html=1;" vertex="1" parent="1">
          <mxGeometry x="590" y="530" width="100" height="50" as="geometry" />
        </mxCell>
        <mxCell id="MwsztaiUmeLu_uvfN375-51" value="Melakukan Logout" style="ellipse;whiteSpace=wrap;html=1;" vertex="1" parent="1">
          <mxGeometry x="210" y="410" width="100" height="50" as="geometry" />
        </mxCell>
        <mxCell id="MwsztaiUmeLu_uvfN375-53" value="&lt;b&gt;SISTEM ATM&lt;/b&gt;" style="text;html=1;align=center;verticalAlign=middle;whiteSpace=wrap;rounded=0;" vertex="1" parent="1">
          <mxGeometry x="410" y="40" width="60" height="30" as="geometry" />
        </mxCell>
        <mxCell id="MwsztaiUmeLu_uvfN375-54" value="" style="endArrow=none;html=1;rounded=0;" edge="1" parent="1" source="MwsztaiUmeLu_uvfN375-3">
          <mxGeometry width="50" height="50" relative="1" as="geometry">
            <mxPoint x="180" y="210" as="sourcePoint" />
            <mxPoint x="230" y="160" as="targetPoint" />
          </mxGeometry>
        </mxCell>
        <mxCell id="MwsztaiUmeLu_uvfN375-56" value="" style="endArrow=none;html=1;rounded=0;entryX=0;entryY=0.5;entryDx=0;entryDy=0;" edge="1" parent="1" source="MwsztaiUmeLu_uvfN375-3" target="MwsztaiUmeLu_uvfN375-9">
          <mxGeometry width="50" height="50" relative="1" as="geometry">
            <mxPoint x="80" y="334" as="sourcePoint" />
            <mxPoint x="220" y="190" as="targetPoint" />
          </mxGeometry>
        </mxCell>
        <mxCell id="MwsztaiUmeLu_uvfN375-57" value="" style="endArrow=none;html=1;rounded=0;" edge="1" parent="1" source="MwsztaiUmeLu_uvfN375-3" target="MwsztaiUmeLu_uvfN375-51">
          <mxGeometry width="50" height="50" relative="1" as="geometry">
            <mxPoint x="110" y="324" as="sourcePoint" />
            <mxPoint x="250" y="180" as="targetPoint" />
          </mxGeometry>
        </mxCell>
        <mxCell id="MwsztaiUmeLu_uvfN375-58" value="" style="endArrow=none;html=1;rounded=0;" edge="1" parent="1" source="MwsztaiUmeLu_uvfN375-4">
          <mxGeometry width="50" height="50" relative="1" as="geometry">
            <mxPoint x="160" y="287" as="sourcePoint" />
            <mxPoint x="300" y="143" as="targetPoint" />
          </mxGeometry>
        </mxCell>
        <mxCell id="MwsztaiUmeLu_uvfN375-59" value="" style="endArrow=none;html=1;rounded=0;exitX=0.352;exitY=-0.044;exitDx=0;exitDy=0;exitPerimeter=0;" edge="1" parent="1" source="MwsztaiUmeLu_uvfN375-50">
          <mxGeometry width="50" height="50" relative="1" as="geometry">
            <mxPoint x="640" y="480" as="sourcePoint" />
            <mxPoint x="780" y="336" as="targetPoint" />
          </mxGeometry>
        </mxCell>
        <mxCell id="MwsztaiUmeLu_uvfN375-60" value="&amp;lt;&amp;lt;include&amp;gt;&amp;gt;" style="endArrow=open;endSize=12;dashed=1;html=1;rounded=0;" edge="1" parent="1" target="MwsztaiUmeLu_uvfN375-11">
          <mxGeometry width="160" relative="1" as="geometry">
            <mxPoint x="300" y="134.5" as="sourcePoint" />
            <mxPoint x="460" y="134.5" as="targetPoint" />
          </mxGeometry>
        </mxCell>
        <mxCell id="MwsztaiUmeLu_uvfN375-62" value="&amp;lt;&amp;lt;extends&amp;gt;&amp;gt;" style="endArrow=open;endSize=12;dashed=1;html=1;rounded=0;entryX=1;entryY=0;entryDx=0;entryDy=0;" edge="1" parent="1" target="MwsztaiUmeLu_uvfN375-9">
          <mxGeometry width="160" relative="1" as="geometry">
            <mxPoint x="360" y="240" as="sourcePoint" />
            <mxPoint x="520" y="240" as="targetPoint" />
          </mxGeometry>
        </mxCell>
        <mxCell id="MwsztaiUmeLu_uvfN375-63" value="&amp;lt;&amp;lt;extends&amp;gt;&amp;gt;" style="endArrow=open;endSize=12;dashed=1;html=1;rounded=0;entryX=0.932;entryY=0.732;entryDx=0;entryDy=0;exitX=0;exitY=0.5;exitDx=0;exitDy=0;entryPerimeter=0;" edge="1" parent="1" source="MwsztaiUmeLu_uvfN375-47" target="MwsztaiUmeLu_uvfN375-9">
          <mxGeometry x="0.0026" width="160" relative="1" as="geometry">
            <mxPoint x="370" y="250" as="sourcePoint" />
            <mxPoint x="290" y="315" as="targetPoint" />
            <mxPoint as="offset" />
          </mxGeometry>
        </mxCell>
        <mxCell id="MwsztaiUmeLu_uvfN375-64" value="&amp;lt;&amp;lt;extends&amp;gt;&amp;gt;" style="endArrow=open;endSize=12;dashed=1;html=1;rounded=0;entryX=1;entryY=0.5;entryDx=0;entryDy=0;" edge="1" parent="1" source="MwsztaiUmeLu_uvfN375-10" target="MwsztaiUmeLu_uvfN375-9">
          <mxGeometry width="160" relative="1" as="geometry">
            <mxPoint x="380" y="260" as="sourcePoint" />
            <mxPoint x="300" y="325" as="targetPoint" />
          </mxGeometry>
        </mxCell>
        <mxCell id="MwsztaiUmeLu_uvfN375-65" value="&amp;lt;&amp;lt;extends&amp;gt;&amp;gt;" style="endArrow=open;endSize=12;dashed=1;html=1;rounded=0;entryX=1;entryY=1;entryDx=0;entryDy=0;exitX=0;exitY=0;exitDx=0;exitDy=0;" edge="1" parent="1" source="MwsztaiUmeLu_uvfN375-49" target="MwsztaiUmeLu_uvfN375-9">
          <mxGeometry x="0.0026" width="160" relative="1" as="geometry">
            <mxPoint x="450" y="345" as="sourcePoint" />
            <mxPoint x="283" y="327" as="targetPoint" />
            <mxPoint as="offset" />
          </mxGeometry>
        </mxCell>
      </root>
    </mxGraphModel>
  </diagram>
</mxfile>
